<svg id="Layer_1" enable-background="new 0 0 512 512" height="512" viewBox="0 0 512 512" width="512" xmlns="http://www.w3.org/2000/svg"><g><g><path d="m387.266 101.941c-25.706-25.707-59.887-39.864-96.245-39.864s-70.539 14.157-96.247 39.866c-53.054 53.085-53.053 139.437.002 192.492 25.706 25.707 59.887 39.864 96.245 39.864s70.539-14.157 96.243-39.862c25.716-25.702 39.879-59.88 39.879-96.238-.001-36.357-14.163-70.542-39.877-96.258zm-96.245 212.359c-23.931 0-46.753-7.196-66.004-20.554 1.668-22.089 14.458-42.017 33.887-52.882 9.288 5.934 20.304 9.39 32.118 9.39 11.818 0 22.837-3.455 32.128-9.387 19.434 10.859 32.228 30.778 33.902 52.861-19.258 13.369-42.089 20.572-66.031 20.572zm-39.86-123.935c0-21.979 17.881-39.86 39.859-39.86 21.994 0 39.887 17.881 39.887 39.86 0 21.995-17.894 39.889-39.887 39.889-21.978 0-39.859-17.894-39.859-39.889zm123.66 88.189c-5.108-21.065-18.076-39.637-36.332-51.737 7.778-10.105 12.418-22.744 12.418-36.452 0-33.007-26.865-59.86-59.887-59.86-33.006 0-59.859 26.854-59.859 59.86 0 13.706 4.636 26.342 12.408 36.446-18.256 12.105-31.224 30.688-36.327 51.763-43.571-45.387-43.015-117.774 1.676-162.49 21.928-21.93 51.086-34.007 82.103-34.007s60.174 12.077 82.103 34.007c21.938 21.938 34.019 51.1 34.019 82.115-.001 30.202-11.461 58.638-32.322 80.355z"/><path d="m185.633 366.739c-13.392 0-24.286 10.907-24.286 24.314v34.554c0 13.392 10.895 24.287 24.286 24.287h210.774c13.407 0 24.314-10.896 24.314-24.287v-34.554c0-13.407-10.907-24.314-24.314-24.314zm215.089 24.315v34.554c0 2.324-1.976 4.287-4.314 4.287h-210.775c-2.323 0-4.286-1.963-4.286-4.287v-34.554c0-2.339 1.963-4.314 4.286-4.314h210.774c2.34-.001 4.315 1.975 4.315 4.314z"/><path d="m448.875 0h-123.019c-5.523 0-10 4.478-10 10s4.477 10 10 10h123.018c17.586 0 31.894 14.309 31.894 31.896v408.209c0 17.587-14.308 31.896-31.894 31.896h-335.861c-17.586 0-31.894-14.309-31.894-31.896v-15.199h23.504c14.548 0 26.384-11.836 26.384-26.384v-31.407c0-14.548-11.836-26.384-26.384-26.384h-23.504v-62.657h23.504c14.548 0 26.384-11.836 26.384-26.384v-31.407c0-14.548-11.836-26.384-26.384-26.384h-23.504v-62.657h23.504c14.548 0 26.384-11.836 26.384-26.384v-31.379c0-14.548-11.836-26.384-26.384-26.384h-23.504v-15.199c0-17.587 14.307-31.896 31.894-31.896h123.046c5.523 0 10-4.478 10-10s-4.477-10-10-10h-123.046c-28.615 0-51.894 23.28-51.894 51.896v15.199h-23.504c-14.548 0-26.383 11.836-26.383 26.384v31.379c0 14.548 11.835 26.384 26.383 26.384h23.504v62.657h-23.504c-14.548 0-26.383 11.836-26.383 26.384v31.407c0 14.548 11.835 26.384 26.383 26.384h23.504v62.657h-23.504c-14.548 0-26.383 11.836-26.383 26.384v31.407c0 14.548 11.835 26.384 26.383 26.384h23.504v15.199c0 28.615 23.279 51.896 51.894 51.896h335.862c28.614 0 51.894-23.28 51.894-51.896v-408.209c0-28.616-23.28-51.896-51.894-51.896zm-417.644 124.857v-31.378c0-3.521 2.864-6.384 6.383-6.384h67.008c3.52 0 6.384 2.863 6.384 6.384v31.379c0 3.521-2.864 6.384-6.384 6.384h-67.007c-3.52-.001-6.384-2.864-6.384-6.385zm0 146.832v-31.407c0-3.46 2.923-6.384 6.383-6.384h67.008c3.46 0 6.384 2.924 6.384 6.384v31.407c0 3.521-2.864 6.384-6.384 6.384h-67.007c-3.52 0-6.384-2.863-6.384-6.384zm0 146.832v-31.407c0-3.521 2.864-6.384 6.383-6.384h67.008c3.52 0 6.384 2.863 6.384 6.384v31.407c0 3.521-2.864 6.384-6.384 6.384h-67.007c-3.52 0-6.384-2.863-6.384-6.384z"/><path d="m280.958 20h.028c5.523 0 9.986-4.478 9.986-10s-4.491-10-10.014-10-10 4.478-10 10 4.477 10 10 10z"/></g></g></svg>